<?xml version="1.0" standalone="no"?>
<!DOCTYPE svg PUBLIC "-//W3C//DTD SVG 20010904//EN"
 "http://www.w3.org/TR/2001/REC-SVG-20010904/DTD/svg10.dtd">
<svg version="1.0" xmlns="http://www.w3.org/2000/svg"
 width="126.000000pt" height="150.000000pt" viewBox="0 0 126.000000 150.000000"
 preserveAspectRatio="xMidYMid meet">

<g transform="translate(0.000000,150.000000) scale(0.100000,-0.100000)"
fill="#000000" stroke="none">
<path d="M490 1090 c-204 -43 -347 -250 -311 -452 38 -218 243 -366 453 -329
251 44 397 297 308 533 -38 102 -135 197 -238 233 -57 19 -156 26 -212 15z
m108 -183 c16 -13 15 -37 -2 -37 -8 0 -18 -9 -21 -20 -7 -23 -25 -27 -25 -6 0
8 -5 16 -10 18 -7 2 -7 13 0 35 12 32 26 35 58 10z m-78 -68 c0 -6 -4 -7 -10
-4 -5 3 -10 11 -10 16 0 6 5 7 10 4 6 -3 10 -11 10 -16z m-164 -72 c-16 -12
-17 -27 -14 -124 3 -122 12 -141 73 -170 l30 -14 -40 6 c-88 14 -105 47 -105
199 0 91 -2 105 -17 109 -10 3 6 5 36 6 47 1 52 -1 37 -12z m232 6 c-16 -4
-18 -20 -18 -148 0 -141 0 -144 23 -148 12 -2 -5 -5 -38 -5 -45 -1 -54 2 -37
8 21 9 22 14 22 145 0 131 -1 136 -22 145 -18 7 -10 9 32 8 30 0 47 -2 38 -5z
m187 -13 c28 -31 24 -84 -8 -118 l-28 -29 45 -61 c28 -37 56 -64 71 -68 40
-10 29 -26 -12 -18 -44 7 -62 22 -106 90 -24 36 -39 50 -60 52 -40 5 -33 22
10 22 44 0 73 24 73 61 0 42 -10 60 -44 75 l-31 13 36 1 c24 0 42 -7 54 -20z"/>
</g>
</svg>
